<?xml version="1.0" encoding="UTF-8"?>
<svg version="1.1" xmlns="http://www.w3.org/2000/svg" width="612" height="612">
<path d="M0 0 C201.96 0 403.92 0 612 0 C612 201.96 612 403.92 612 612 C410.04 612 208.08 612 0 612 C0 410.04 0 208.08 0 0 Z " fill="#FEFEFE" transform="translate(0,0)"/>
<path d="M0 0 C1.29115723 -0.0049926 1.29115723 -0.0049926 2.60839844 -0.01008606 C4.42365998 -0.01512275 6.23893069 -0.0174954 8.05419922 -0.01733398 C10.7771815 -0.01950312 13.49974634 -0.03764587 16.22265625 -0.05664062 C31.18980381 -0.10642314 45.3990024 1.40333015 60.0625 4.54296875 C61.61723022 4.87276733 61.61723022 4.87276733 63.20336914 5.20922852 C70.27463449 6.74699324 77.02954696 8.6404456 83.8125 11.16796875 C85.08443535 11.58275987 86.35801254 11.9925357 87.6328125 12.3984375 C99.04729891 16.10357258 109.38619161 21.25774137 119.8125 27.16796875 C120.42077637 27.51085937 121.02905273 27.85375 121.65576172 28.20703125 C131.29297673 33.70602781 140.10326844 40.32564143 148.8125 47.16796875 C149.36905273 47.60447754 149.92560547 48.04098633 150.49902344 48.49072266 C166.29665359 61.02674978 180.44469936 75.50221163 191.8125 92.16796875 C192.20695312 92.73902344 192.60140625 93.31007813 193.0078125 93.8984375 C195.75332942 97.90465096 198.3180544 102.001514 200.8125 106.16796875 C201.23885742 106.87308594 201.66521484 107.57820313 202.10449219 108.3046875 C213.17095043 126.82048948 221.50222582 146.99557859 225.8125 168.16796875 C226.17248445 169.83218122 226.53320628 171.49623431 226.89453125 173.16015625 C227.26516032 174.91230922 227.63367475 176.66491092 228 178.41796875 C228.25112549 179.60592041 228.25112549 179.60592041 228.50732422 180.81787109 C231.00903135 193.32640674 231.0519406 205.96221057 231.0625 218.66796875 C231.06350708 219.51212341 231.06451416 220.35627808 231.06555176 221.22601318 C231.05605825 233.00270787 230.68883528 244.41182134 228.25683594 255.97558594 C227.78667612 258.2953855 227.40791456 260.61909106 227.0390625 262.95703125 C224.91280475 275.7347797 220.72738309 287.4666897 215.89770508 299.45922852 C215.20023539 301.2001568 214.51894518 302.94770262 213.8581543 304.70288086 C211.34432257 311.30438183 208.13462175 317.3572225 204.625 323.48046875 C204.04983643 324.48940186 203.47467285 325.49833496 202.88208008 326.5378418 C176.55624674 372.23419759 135.86424721 405.6707612 86.8125 424.16796875 C85.955354 424.50231934 85.09820801 424.83666992 84.21508789 425.18115234 C77.17782822 427.85940297 70.09991351 429.68610507 62.75 431.29296875 C61.66267578 431.54433594 60.57535156 431.79570313 59.45507812 432.0546875 C43.70609764 435.5463361 27.96731025 436.58258428 11.875 436.54296875 C11.0331012 436.54242493 10.19120239 436.5418811 9.3237915 436.5413208 C-13.26383565 436.47475661 -34.71245638 433.34746835 -56.1875 426.16796875 C-56.90969727 425.92820312 -57.63189453 425.6884375 -58.37597656 425.44140625 C-68.77771565 421.92096643 -78.47839843 417.26644776 -88.1875 412.16796875 C-89.90646484 411.28431641 -89.90646484 411.28431641 -91.66015625 410.3828125 C-111.1260984 400.19741488 -127.74766079 386.65777508 -143.1875 371.16796875 C-143.87070313 370.51957031 -144.55390625 369.87117188 -145.2578125 369.203125 C-166.91895607 348.40677994 -184.08311288 320.10844462 -193.3125 291.66796875 C-193.52438965 291.02244049 -193.7362793 290.37691223 -193.95458984 289.71182251 C-196.69465115 281.34299591 -199.2075777 272.9408349 -201.1875 264.35546875 C-201.37070801 263.56527344 -201.55391602 262.77507812 -201.74267578 261.9609375 C-204.85083413 247.41032904 -205.5662207 232.80918947 -205.5 217.98046875 C-205.49817719 217.12801575 -205.49635437 216.27556274 -205.49447632 215.39727783 C-205.44679505 202.11579117 -204.83899248 189.21741932 -202.1875 176.16796875 C-202.02652832 175.32814453 -201.86555664 174.48832031 -201.69970703 173.62304688 C-197.68409162 153.11679181 -190.17962617 133.4910743 -180.1875 115.16796875 C-179.57519531 114.01683594 -178.96289062 112.86570312 -178.33203125 111.6796875 C-151.01029366 61.93722504 -103.49273257 24.22845242 -49.1875 8.16796875 C-33.18774979 3.66451439 -16.66859675 0.02303271 0 0 Z " fill="#FDFDFD" transform="translate(293.1875,87.83203125)"/>
<path d="M0 0 C1.01869926 0.87011149 2.03426371 1.74390474 3.046875 2.62109375 C3.58505859 3.08241699 4.12324219 3.54374023 4.67773438 4.01904297 C21.15082766 18.27609 40.86040924 39.874772 43.859375 62.30859375 C43.9521875 63.94828125 43.9521875 63.94828125 44.046875 65.62109375 C42.561875 66.11609375 42.561875 66.11609375 41.046875 66.62109375 C41.046875 67.28109375 41.046875 67.94109375 41.046875 68.62109375 C39.06512779 70.37993257 37.08137743 72.00882416 34.984375 73.62109375 C34.35023682 74.1109375 33.71609863 74.60078125 33.06274414 75.10546875 C15.4094985 88.58699771 -3.77414432 99.70419713 -24.953125 106.62109375 C-25.59572266 106.83958984 -26.23832031 107.05808594 -26.90039062 107.28320312 C-31.86484191 108.95766197 -36.86657746 110.36729336 -41.953125 111.62109375 C-42.75492188 111.82009277 -43.55671875 112.0190918 -44.3828125 112.22412109 C-84.6322142 121.67499022 -130.30385647 116.67871338 -166.953125 97.62109375 C-167.97921875 97.13125 -169.0053125 96.64140625 -170.0625 96.13671875 C-181.94614068 90.44100931 -192.74018011 83.17558896 -203.015625 74.96484375 C-204.8396164 73.50953146 -206.6900274 72.08596224 -208.578125 70.71484375 C-209.691875 69.8640625 -209.691875 69.8640625 -210.828125 68.99609375 C-211.46492187 68.52945313 -212.10171875 68.0628125 -212.7578125 67.58203125 C-214.37225716 64.93349786 -214.05397657 62.85543241 -213.54052734 59.86865234 C-212.46725825 55.76203753 -210.69741664 52.04359452 -208.828125 48.24609375 C-208.22025146 46.99046631 -208.22025146 46.99046631 -207.60009766 45.70947266 C-204.57040997 39.57975035 -201.19377321 33.99656331 -196.953125 28.62109375 C-196.16035156 27.54601562 -196.16035156 27.54601562 -195.3515625 26.44921875 C-184.26554137 11.63283032 -171.02568374 -1.11126149 -154.953125 -10.37890625 C-153.8703125 -11.02472656 -152.7875 -11.67054688 -151.671875 -12.3359375 C-136.68482718 -20.99548986 -120.02868385 -25.93147224 -102.953125 -28.37890625 C-101.67179687 -28.56324219 -100.39046875 -28.74757813 -99.0703125 -28.9375 C-64.77948959 -33.08694995 -26.74738679 -21.7577093 0 0 Z " fill="#303338" transform="translate(390.953125,378.37890625)"/>
<path d="M0 0 C1.11761719 0.52207031 2.23523438 1.04414063 3.38671875 1.58203125 C12.66051917 6.10205486 19.82513208 11.62428041 27 19 C27.59167969 19.59425781 28.18335938 20.18851563 28.79296875 20.80078125 C43.91488201 37.13893418 47.69619001 56.80691303 47.30859375 78.25390625 C46.53427194 97.76617318 37.09061228 113.61375545 24.328125 127.8671875 C23 129 23 129 21 129 C21 129.66 21 130.32 21 131 C2.73378104 146.37373743 -18.78820063 150.43607835 -42 149 C-62.21618397 146.68825557 -79.49867904 134.53072022 -92 119 C-105.40929041 100.49375018 -109.32422483 80.07938568 -106.71582031 57.54492188 C-104.23755154 42.67530926 -97.05841265 30.02387983 -87 19 C-86.37480469 18.29359375 -85.74960938 17.5871875 -85.10546875 16.859375 C-64.48588533 -5.19272684 -27.66779936 -13.41015861 0 0 Z " fill="#303338" transform="translate(336,188)"/>
<path d="M0 0 C1.29115723 -0.0049926 1.29115723 -0.0049926 2.60839844 -0.01008606 C4.42365998 -0.01512275 6.23893069 -0.0174954 8.05419922 -0.01733398 C10.7771815 -0.01950312 13.49974634 -0.03764587 16.22265625 -0.05664062 C31.18980381 -0.10642314 45.3990024 1.40333015 60.0625 4.54296875 C61.61723022 4.87276733 61.61723022 4.87276733 63.20336914 5.20922852 C70.27463449 6.74699324 77.02954696 8.6404456 83.8125 11.16796875 C85.08443535 11.58275987 86.35801254 11.9925357 87.6328125 12.3984375 C99.04729891 16.10357258 109.38619161 21.25774137 119.8125 27.16796875 C120.42077637 27.51085937 121.02905273 27.85375 121.65576172 28.20703125 C131.29297673 33.70602781 140.10326844 40.32564143 148.8125 47.16796875 C149.36905273 47.60447754 149.92560547 48.04098633 150.49902344 48.49072266 C166.29665359 61.02674978 180.44469936 75.50221163 191.8125 92.16796875 C192.20695312 92.73902344 192.60140625 93.31007813 193.0078125 93.8984375 C195.75332942 97.90465096 198.3180544 102.001514 200.8125 106.16796875 C201.23885742 106.87308594 201.66521484 107.57820313 202.10449219 108.3046875 C213.17095043 126.82048948 221.50222582 146.99557859 225.8125 168.16796875 C226.17248445 169.83218122 226.53320628 171.49623431 226.89453125 173.16015625 C227.26516032 174.91230922 227.63367475 176.66491092 228 178.41796875 C228.25112549 179.60592041 228.25112549 179.60592041 228.50732422 180.81787109 C231.00903135 193.32640674 231.0519406 205.96221057 231.0625 218.66796875 C231.06350708 219.51212341 231.06451416 220.35627808 231.06555176 221.22601318 C231.05605825 233.00270787 230.68883528 244.41182134 228.25683594 255.97558594 C227.78667612 258.2953855 227.40791456 260.61909106 227.0390625 262.95703125 C224.91280475 275.7347797 220.72738309 287.4666897 215.89770508 299.45922852 C215.20023539 301.2001568 214.51894518 302.94770262 213.8581543 304.70288086 C211.34432257 311.30438183 208.13462175 317.3572225 204.625 323.48046875 C204.04983643 324.48940186 203.47467285 325.49833496 202.88208008 326.5378418 C176.55624674 372.23419759 135.86424721 405.6707612 86.8125 424.16796875 C85.955354 424.50231934 85.09820801 424.83666992 84.21508789 425.18115234 C77.17782822 427.85940297 70.09991351 429.68610507 62.75 431.29296875 C61.66267578 431.54433594 60.57535156 431.79570313 59.45507812 432.0546875 C43.70609764 435.5463361 27.96731025 436.58258428 11.875 436.54296875 C11.0331012 436.54242493 10.19120239 436.5418811 9.3237915 436.5413208 C-13.26383565 436.47475661 -34.71245638 433.34746835 -56.1875 426.16796875 C-56.90969727 425.92820312 -57.63189453 425.6884375 -58.37597656 425.44140625 C-68.77771565 421.92096643 -78.47839843 417.26644776 -88.1875 412.16796875 C-89.90646484 411.28431641 -89.90646484 411.28431641 -91.66015625 410.3828125 C-111.1260984 400.19741488 -127.74766079 386.65777508 -143.1875 371.16796875 C-143.87070313 370.51957031 -144.55390625 369.87117188 -145.2578125 369.203125 C-166.91895607 348.40677994 -184.08311288 320.10844462 -193.3125 291.66796875 C-193.52438965 291.02244049 -193.7362793 290.37691223 -193.95458984 289.71182251 C-196.69465115 281.34299591 -199.2075777 272.9408349 -201.1875 264.35546875 C-201.37070801 263.56527344 -201.55391602 262.77507812 -201.74267578 261.9609375 C-204.85083413 247.41032904 -205.5662207 232.80918947 -205.5 217.98046875 C-205.49817719 217.12801575 -205.49635437 216.27556274 -205.49447632 215.39727783 C-205.44679505 202.11579117 -204.83899248 189.21741932 -202.1875 176.16796875 C-202.02652832 175.32814453 -201.86555664 174.48832031 -201.69970703 173.62304688 C-197.68409162 153.11679181 -190.17962617 133.4910743 -180.1875 115.16796875 C-179.57519531 114.01683594 -178.96289062 112.86570312 -178.33203125 111.6796875 C-151.01029366 61.93722504 -103.49273257 24.22845242 -49.1875 8.16796875 C-33.18774979 3.66451439 -16.66859675 0.02303271 0 0 Z M-135.1875 76.16796875 C-135.99574219 76.92400391 -135.99574219 76.92400391 -136.8203125 77.6953125 C-171.19817951 110.18329677 -190.49424951 161.89194597 -192.31176758 208.34399414 C-192.85454825 230.06698388 -191.30458123 251.25505928 -185.1875 272.16796875 C-184.84074219 273.41964844 -184.49398437 274.67132813 -184.13671875 275.9609375 C-174.65358201 309.0704889 -156.68804486 337.30336504 -133.1875 362.16796875 C-132.38441406 363.02519531 -131.58132812 363.88242187 -130.75390625 364.765625 C-124.63826196 371.10219569 -117.97511252 376.52677444 -110.96337891 381.82397461 C-109.73505629 382.75357538 -108.51378492 383.69254013 -107.29833984 384.63891602 C-102.43600283 388.38357829 -97.39282257 391.57051087 -92.0625 394.60546875 C-91.22847656 395.08209961 -90.39445312 395.55873047 -89.53515625 396.04980469 C-49.82121204 418.57572466 -2.6413976 429.19621762 42.8125 421.16796875 C43.61848633 421.03374512 44.42447266 420.89952148 45.25488281 420.76123047 C57.08561913 418.77625186 68.52897513 416.26652776 79.8125 412.16796875 C80.57884766 411.88969238 81.34519531 411.61141602 82.13476562 411.32470703 C104.91032551 402.90903752 124.81142854 391.20411075 143.8125 376.16796875 C144.82054687 375.3790625 145.82859375 374.59015625 146.8671875 373.77734375 C152.10401597 369.60491131 156.76857578 365.52343596 160.8125 360.16796875 C160.8125 359.50796875 160.8125 358.84796875 160.8125 358.16796875 C161.40853027 357.90781982 162.00456055 357.6476709 162.61865234 357.37963867 C164.97049805 356.08070586 166.20894276 354.84080475 167.9140625 352.78125 C168.4814917 352.09836914 169.0489209 351.41548828 169.63354492 350.71191406 C170.2288501 349.97553711 170.82415527 349.23916016 171.4375 348.48046875 C172.05923096 347.71444336 172.68096191 346.94841797 173.3215332 346.15917969 C207.76936912 303.17823057 222.965089 248.06783309 216.94433594 193.39746094 C214.18897828 172.62008965 208.74652483 151.33279687 199.05859375 132.6875 C198.1066309 130.76268483 197.23400446 128.7984365 196.3984375 126.8203125 C187.82375358 107.07319559 174.28845199 89.93016931 159.29150391 74.67333984 C158.02914384 73.38847484 156.78418269 72.08655417 155.54296875 70.78125 C120.97179276 34.94269892 68.92537856 14.23044421 19.66796875 12.91015625 C-39.90333595 12.09355993 -93.18000171 34.09115116 -135.1875 76.16796875 Z " fill="#34363A" transform="translate(293.1875,87.83203125)"/>
<path d="M0 0 C0.55945313 0.17015625 1.11890625 0.3403125 1.6953125 0.515625 C8.07307418 2.44330859 14.47588364 4.26218961 20.8984375 6.03515625 C23.46201415 6.83264168 25.66143075 7.70399488 28 9 C26.39125 8.938125 26.39125 8.938125 24.75 8.875 C21.34252515 8.9885825 19.79260369 9.21273364 17 11 C17.99 11.66 18.98 12.32 20 13 C21.61785127 15.63965207 22 16.84012675 22 20 C25.3 20.33 28.6 20.66 32 21 C31.67 21.66 31.34 22.32 31 23 C22.49267907 22.68514092 15.00520883 20.32157683 7 17.5625 C5.77410156 17.15451172 4.54820312 16.74652344 3.28515625 16.32617188 C-5.72550517 13.27449483 -5.72550517 13.27449483 -8 11 C-6.02 10.67 -4.04 10.34 -2 10 C-2 9.34 -2 8.68 -2 8 C-1.01 7.67 -0.02 7.34 1 7 C0.67 6.34 0.34 5.68 0 5 C0.66 4.34 1.32 3.68 2 3 C1.34 2.67 0.68 2.34 0 2 C0 1.34 0 0.68 0 0 Z " fill="#383B3F" transform="translate(232,497)"/>
<path d="M0 0 C1.66666667 0 3.33333333 0 5 0 C5 2.31 5 4.62 5 7 C6.32 7 7.64 7 9 7 C9 7.66 9 8.32 9 9 C9.66 9 10.32 9 11 9 C10.67 11.31 10.34 13.62 10 16 C10.66 16.33 11.32 16.66 12 17 C11.34 17.66 10.68 18.32 10 19 C10 19.99 10 20.98 10 22 C9.34 22 8.68 22 8 22 C7.4225 20.88625 6.845 19.7725 6.25 18.625 C4.53833588 15.60834373 3.32990627 14.22096563 0 13 C-0.66 12.34 -1.32 11.68 -2 11 C-1.34 10.01 -0.68 9.02 0 8 C-1.32 7.34 -2.64 6.68 -4 6 C-2.1875 3 -2.1875 3 0 0 Z " fill="#2E3033" transform="translate(145,439)"/>
<path d="M0 0 C2.35424675 -0.02726927 4.70816962 -0.04696719 7.0625 -0.0625 C8.37347656 -0.07410156 9.68445313 -0.08570312 11.03515625 -0.09765625 C14.8163519 -0.00452335 18.27920707 0.38551274 22 1 C21.125 5.75 21.125 5.75 20 8 C15.90805199 9.41644354 12.33291912 10.26260116 8 10 C8.66 9.67 9.32 9.34 10 9 C10 8.34 10 7.68 10 7 C9.34 7 8.68 7 8 7 C9.875 3.125 9.875 3.125 11 2 C7.37 1.67 3.74 1.34 0 1 C0 0.67 0 0.34 0 0 Z " fill="#2E2F32" transform="translate(320,90)"/>
<path d="M0 0 C0.99 0.66 1.98 1.32 3 2 C2.67 3.65 2.34 5.3 2 7 C2.66 7 3.32 7 4 7 C3.67 8.32 3.34 9.64 3 11 C0.525 10.01 0.525 10.01 -2 9 C-2 9.66 -2 10.32 -2 11 C-1.34 11 -0.68 11 0 11 C0 12.65 0 14.3 0 16 C-1.50559539 14.03617993 -2.89131683 12.21736634 -4 10 C-4.99 10.33 -5.98 10.66 -7 11 C-6.46930939 7.17902761 -5.50298434 4.93828597 -3 2 C-3 2.99 -3 3.98 -3 5 C-2.34 5 -1.68 5 -1 5 C-0.67 3.35 -0.34 1.7 0 0 Z " fill="#2D3034" transform="translate(485,184)"/>
<path d="M0 0 C0.66 0 1.32 0 2 0 C2.28875 0.9075 2.5775 1.815 2.875 2.75 C3.76531776 5.32202908 4.71494413 7.61346766 6 10 C5.01 10 4.02 10 3 10 C2.71125 10.5775 2.4225 11.155 2.125 11.75 C1.08333333 13.83333333 0.04166667 15.91666667 -1 18 C-1.99 17.67 -2.98 17.34 -4 17 C-3.88637738 15.5199159 -3.75877092 14.04089926 -3.625 12.5625 C-3.55539062 11.73878906 -3.48578125 10.91507812 -3.4140625 10.06640625 C-3.27742188 9.38449219 -3.14078125 8.70257813 -3 8 C-2.34 7.67 -1.68 7.34 -1 7 C-0.59270772 4.67843403 -0.25561323 2.3431213 0 0 Z " fill="#2E3135" transform="translate(476,423)"/>
<path d="M0 0 C1.32 1.32 2.64 2.64 4 4 C3.67 4.66 3.34 5.32 3 6 C2.67 5.67 2.34 5.34 2 5 C1.34 6.32 0.68 7.64 0 9 C-0.99 8.67 -1.98 8.34 -3 8 C-3.99 9.98 -4.98 11.96 -6 14 C-8.52588702 11.63707344 -9.88820837 10.33537489 -11 7 C-10.34 7 -9.68 7 -9 7 C-8.67 6.34 -8.34 5.68 -8 5 C-8 5.66 -8 6.32 -8 7 C-7.34 7 -6.68 7 -6 7 C-5.67 6.01 -5.34 5.02 -5 4 C-3.68 4.33 -2.36 4.66 -1 5 C-1.33 4.01 -1.66 3.02 -2 2 C-1.34 1.34 -0.68 0.68 0 0 Z " fill="#3A3C3E" transform="translate(484,180)"/>
<path d="M0 0 C1.98 0 3.96 0 6 0 C6.75 1.75 6.75 1.75 7 4 C5.0625 6.25 5.0625 6.25 3 8 C3.33 8.99 3.66 9.98 4 11 C3.05125 10.67 2.1025 10.34 1.125 10 C-1.77062452 8.89840809 -1.77062452 8.89840809 -4 9 C-4.33 7.68 -4.66 6.36 -5 5 C-4.175 4.54625 -3.35 4.0925 -2.5 3.625 C-1.2625 2.820625 -1.2625 2.820625 0 2 C0 1.34 0 0.68 0 0 Z " fill="#2D2F33" transform="translate(196,483)"/>
<path d="M0 0 C0.66 0.33 1.32 0.66 2 1 C2.33333333 2.33333333 2.66666667 3.66666667 3 5 C3.66 5.33 4.32 5.66 5 6 C5.625 8.0625 5.625 8.0625 6 10 C5.360625 10.12375 4.72125 10.2475 4.0625 10.375 C3.381875 10.58125 2.70125 10.7875 2 11 C1.67 11.66 1.34 12.32 1 13 C-0.65 13 -2.3 13 -4 13 C-4 11.68 -4 10.36 -4 9 C-2.68 9 -1.36 9 0 9 C0 7.68 0 6.36 0 5 C-0.66 4.34 -1.32 3.68 -2 3 C-1.34 2.01 -0.68 1.02 0 0 Z M-5 3 C-3.68 3.66 -2.36 4.32 -1 5 C-1 5.66 -1 6.32 -1 7 C-1.66 7 -2.32 7 -3 7 C-3 6.34 -3 5.68 -3 5 C-3.99 5.33 -4.98 5.66 -6 6 C-5.67 5.01 -5.34 4.02 -5 3 Z " fill="#2D2F32" transform="translate(162,454)"/>
<path d="M0 0 C3 3.20689655 3 3.20689655 3 6 C2.01 6 1.02 6 0 6 C0 6.66 0 7.32 0 8 C-3.3 8.66 -6.6 9.32 -10 10 C-9.34 8.35 -8.68 6.7 -8 5 C-6.68 5 -5.36 5 -4 5 C-4.7763932 1.9254644 -4.7763932 1.9254644 -7 0 C-4.24438552 -1.37780724 -2.90228766 -0.92023755 0 0 Z " fill="#2D3033" transform="translate(216,490)"/>
<path d="M0 0 C0.99 0 1.98 0 3 0 C4.0257259 4.41062136 4.03684712 6.92630576 2 11 C1.34 10.34 0.68 9.68 0 9 C-0.99 9.495 -0.99 9.495 -2 10 C-2.6875 8.375 -2.6875 8.375 -3 6 C-1.5625 2.75 -1.5625 2.75 0 0 Z " fill="#2E3135" transform="translate(507,376)"/>
<path d="M0 0 C0 0.33 0 0.66 0 1 C-1.65 1.33 -3.3 1.66 -5 2 C-5.33 2.99 -5.66 3.98 -6 5 C-6.99 5 -7.98 5 -9 5 C-9 5.66 -9 6.32 -9 7 C-12 6 -12 6 -15 4 C-14.01 3.67 -13.02 3.34 -12 3 C-13.32 2.34 -14.64 1.68 -16 1 C-10.59255982 0.22750855 -5.46137814 -0.09752461 0 0 Z " fill="#494A4C" transform="translate(292,88)"/>
<path d="M0 0 C0.78375 0.04125 1.5675 0.0825 2.375 0.125 C2.375 2.435 2.375 4.745 2.375 7.125 C1.385 6.795 0.395 6.465 -0.625 6.125 C-0.955 7.445 -1.285 8.765 -1.625 10.125 C-2.615 9.465 -3.605 8.805 -4.625 8.125 C-4.9375 5.125 -4.9375 5.125 -4.625 2.125 C-2.625 0.125 -2.625 0.125 0 0 Z " fill="#2E3033" transform="translate(95.625,335.875)"/>
<path d="M0 0 C0.33 0.99 0.66 1.98 1 3 C-0.32 3.33 -1.64 3.66 -3 4 C-3 4.66 -3 5.32 -3 6 C-1.68 5.67 -0.36 5.34 1 5 C1.33 5.66 1.66 6.32 2 7 C-2.455 7.495 -2.455 7.495 -7 8 C-6.6875 5.125 -6.6875 5.125 -6 2 C-3 0 -3 0 0 0 Z " fill="#2E2F31" transform="translate(247,99)"/>
<path d="M0 0 C3.63559661 3.43361902 6.36113346 6.7973607 9 11 C6.69 11.66 4.38 12.32 2 13 C2 10.69 2 8.38 2 6 C1.34 5.67 0.68 5.34 0 5 C0 3.35 0 1.7 0 0 Z " fill="#3E3F41" transform="translate(407,394)"/>
<path d="M0 0 C0.66 0 1.32 0 2 0 C1.67 0.66 1.34 1.32 1 2 C0.67 1.34 0.34 0.68 0 0 Z M-2 1 C-1.34 1 -0.68 1 0 1 C0.66 1.66 1.32 2.32 2 3 C2.66 3 3.32 3 4 3 C6 9.625 6 9.625 6 13 C5.34 13 4.68 13 4 13 C2.4921875 10.8828125 2.4921875 10.8828125 0.875 8.125 C0.33617188 7.22007812 -0.20265625 6.31515625 -0.7578125 5.3828125 C-2 3 -2 3 -2 1 Z " fill="#3B3E41" transform="translate(114,405)"/>
<path d="M0 0 C1.32 0.66 2.64 1.32 4 2 C4 2.66 4 3.32 4 4 C4.66 4 5.32 4 6 4 C5.814375 4.556875 5.62875 5.11375 5.4375 5.6875 C4.92448835 8.399133 5.3359276 10.34371039 6 13 C4.5 11.6875 4.5 11.6875 3 10 C3 9.01 3 8.02 3 7 C2.38125 6.896875 1.7625 6.79375 1.125 6.6875 C-1 6 -1 6 -3 3 C-2.01 2.67 -1.02 2.34 0 2 C0 1.34 0 0.68 0 0 Z " fill="#2B2E32" transform="translate(457,157)"/>
<path d="M0 0 C2.475 0.99 2.475 0.99 5 2 C4.67 3.98 4.34 5.96 4 8 C1.69 8 -0.62 8 -3 8 C-3.33 6.35 -3.66 4.7 -4 3 C-2.35 2.67 -0.7 2.34 1 2 C0.67 1.34 0.34 0.68 0 0 Z " fill="#2D2E31" transform="translate(219,106)"/>
<path d="M0 0 C1 3 1 3 0 6 C-1.32 6 -2.64 6 -4 6 C-4 6.66 -4 7.32 -4 8 C-5.98 8.33 -7.96 8.66 -10 9 C-10 8.01 -10 7.02 -10 6 C-7.8125 4.39453125 -7.8125 4.39453125 -5 2.8125 C-4.071875 2.28269531 -3.14375 1.75289063 -2.1875 1.20703125 C-1.465625 0.80871094 -0.74375 0.41039062 0 0 Z " fill="#393A3B" transform="translate(415,479)"/>
<path d="M0 0 C2.01822917 0.06510417 4.03645833 0.13020833 6.0546875 0.1953125 C6.0546875 0.5253125 6.0546875 0.8553125 6.0546875 1.1953125 C7.7046875 1.5253125 9.3546875 1.8553125 11.0546875 2.1953125 C11.0546875 2.5253125 11.0546875 2.8553125 11.0546875 3.1953125 C9.00390625 3.42317708 6.953125 3.65104167 4.90234375 3.87890625 C3.04328521 4.01417864 3.04328521 4.01417864 2.0546875 5.1953125 C0.05510386 5.23612033 -1.94576504 5.23785606 -3.9453125 5.1953125 C-3.9453125 1.81964504 -3.57781023 0.35921789 0 0 Z " fill="#383A3D" transform="translate(289.9453125,96.8046875)"/>
<path d="M0 0 C0.99 0.33 1.98 0.66 3 1 C3.33 3.31 3.66 5.62 4 8 C3.01 8.33 2.02 8.66 1 9 C0.67 8.34 0.34 7.68 0 7 C-0.99 7.66 -1.98 8.32 -3 9 C-2.7215625 8.1028125 -2.7215625 8.1028125 -2.4375 7.1875 C-1.77906313 4.83591238 -1.77906313 4.83591238 -3 2 C-2.01 1.34 -1.02 0.68 0 0 Z " fill="#2C2E31" transform="translate(496,207)"/>
<path d="M0 0 C0.93065133 2.60582371 1.14917407 3.64198224 0.0625 6.25 C-0.4634375 7.11625 -0.4634375 7.11625 -1 8 C-1.66 8 -2.32 8 -3 8 C-3.33 9.65 -3.66 11.3 -4 13 C-5.32 13 -6.64 13 -8 13 C-5.49671934 8.52985596 -2.8891456 4.23053463 0 0 Z " fill="#3B3F42" transform="translate(479,415)"/>
<path d="M0 0 C-1.2065625 1.175625 -1.2065625 1.175625 -2.4375 2.375 C-4.98690417 4.71982856 -4.98690417 4.71982856 -6 7 C-8 6 -8 6 -9 4 C-9.99 3.34 -10.98 2.68 -12 2 C-7.72424275 -1.23921004 -5.16347713 -1.11369115 0 0 Z " fill="#2C2E33" transform="translate(260,506)"/>
<path d="M0 0 C3.67758005 3.28355362 5.81389118 6.62778237 8 11 C7.67 11.66 7.34 12.32 7 13 C5.51814875 11.37744772 4.03959744 9.75188112 2.5625 8.125 C1.73878906 7.22007812 0.91507813 6.31515625 0.06640625 5.3828125 C-2 3 -2 3 -3 1 C-2.01 0.67 -1.02 0.34 0 0 Z " fill="#3F4042" transform="translate(146,450)"/>
<path d="M0 0 C1.65 0 3.3 0 5 0 C5.66 2.31 6.32 4.62 7 7 C5.68 7.33 4.36 7.66 3 8 C3 7.01 3 6.02 3 5 C2.34 5.66 1.68 6.32 1 7 C0.67 4.69 0.34 2.38 0 0 Z " fill="#2C2E31" transform="translate(118,400)"/>
<path d="M0 0 C0.33 0 0.66 0 1 0 C1.66 2.97 2.32 5.94 3 9 C3.66 9 4.32 9 5 9 C4.67 10.98 4.34 12.96 4 15 C2.97676564 13.68441297 1.98244845 12.34631825 1 11 C0.401875 10.21625 -0.19625 9.4325 -0.8125 8.625 C-2 6 -2 6 -1.1875 2.6875 C-0.795625 1.800625 -0.40375 0.91375 0 0 Z " fill="#393C40" transform="translate(481,191)"/>
<path d="M0 0 C1.31611677 0.95336021 2.62778961 1.91285774 3.9375 2.875 C4.66839844 3.40867187 5.39929688 3.94234375 6.15234375 4.4921875 C8 6 8 6 9 8 C7.02 8.33 5.04 8.66 3 9 C3 8.01 3 7.02 3 6 C1.68 5.34 0.36 4.68 -1 4 C-0.67 2.68 -0.34 1.36 0 0 Z " fill="#3D3F43" transform="translate(164,454)"/>
<path d="M0 0 C0.33 0 0.66 0 1 0 C1 2.97 1 5.94 1 9 C0.34 9 -0.32 9 -1 9 C-1 9.66 -1 10.32 -1 11 C-1.99 10.67 -2.98 10.34 -4 10 C-4.33 8.35 -4.66 6.7 -5 5 C-3.35 4.67 -1.7 4.34 0 4 C0 2.68 0 1.36 0 0 Z " fill="#3E4043" transform="translate(502,227)"/>
<path d="M0 0 C0.66 0.99 1.32 1.98 2 3 C1.01 3.99 0.02 4.98 -1 6 C-4.37503669 4.8141763 -6.64722731 3.72426311 -9 1 C-5.73842267 -0.08719244 -3.41589896 -0.29071481 0 0 Z " fill="#3B3E40" transform="translate(419,128)"/>
<path d="M0 0 C1.875 1.1875 1.875 1.1875 2.875 3.1875 C2.545 3.8475 2.215 4.5075 1.875 5.1875 C-1.095 4.6925 -1.095 4.6925 -4.125 4.1875 C-4.455 2.8675 -4.785 1.5475 -5.125 0.1875 C-2.125 -0.8125 -2.125 -0.8125 0 0 Z M-6.125 4.1875 C-5.465 4.1875 -4.805 4.1875 -4.125 4.1875 C-4.125 4.8475 -4.125 5.5075 -4.125 6.1875 C-4.785 6.1875 -5.445 6.1875 -6.125 6.1875 C-6.125 5.5275 -6.125 4.8675 -6.125 4.1875 Z " fill="#2C2F34" transform="translate(415.125,488.8125)"/>
<path d="M0 0 C2 2 2 2 2 5 C3.32 5.33 4.64 5.66 6 6 C6.33 7.65 6.66 9.3 7 11 C4 11 4 11 2.578125 9.609375 C2.13984375 8.99578125 1.7015625 8.3821875 1.25 7.75 C0.80140625 7.14671875 0.3528125 6.5434375 -0.109375 5.921875 C-1.21943692 3.52647822 -0.88257281 2.43245678 0 0 Z " fill="#383A3D" transform="translate(241,297)"/>
<path d="M0 0 C1.9375 0.3125 1.9375 0.3125 4 1 C5.1577506 4.47325181 5.06866652 7.36067448 5 11 C0.25316456 5.30379747 0.25316456 5.30379747 -1 2 C-0.67 1.34 -0.34 0.68 0 0 Z " fill="#3E4145" transform="translate(122,420)"/>
<path d="M0 0 C3.875 1.875 3.875 1.875 5 3 C5.04080783 4.99958364 5.04254356 7.00045254 5 9 C4.01 9 3.02 9 2 9 C0 7 0 7 -0.125 3.375 C-0.08375 2.26125 -0.0425 1.1475 0 0 Z " fill="#2E2F31" transform="translate(129,415)"/>
<path d="M0 0 C0.99 0.66 1.98 1.32 3 2 C3.1875 4.625 3.1875 4.625 3 7 C2.01 7.33 1.02 7.66 0 8 C-1.33333333 6.66666667 -2.66666667 5.33333333 -4 4 C-2.68 2.68 -1.36 1.36 0 0 Z " fill="#2C2F33" transform="translate(499,395)"/>
<path d="M0 0 C0.99 0.33 1.98 0.66 3 1 C3.99 0.67 4.98 0.34 6 0 C6.66 0.66 7.32 1.32 8 2 C7.34 2 6.68 2 6 2 C6 2.66 6 3.32 6 4 C4.02 4.66 2.04 5.32 0 6 C0.33 5.01 0.66 4.02 1 3 C-0.65 3.33 -2.3 3.66 -4 4 C-2.68 2.68 -1.36 1.36 0 0 Z " fill="#3E3F40" transform="translate(264,194)"/>
<path d="M0 0 C1.32 0.99 2.64 1.98 4 3 C0.25 4.125 0.25 4.125 -2 3 C-2 3.66 -2 4.32 -2 5 C-1.34 5.33 -0.68 5.66 0 6 C-2.31 6.66 -4.62 7.32 -7 8 C-6.649375 7.38125 -6.29875 6.7625 -5.9375 6.125 C-5.628125 5.42375 -5.31875 4.7225 -5 4 C-5.33 3.34 -5.66 2.68 -6 2 C-4.02 2 -2.04 2 0 2 C0 1.34 0 0.68 0 0 Z " fill="#393C41" transform="translate(198,480)"/>
<path d="M0 0 C0.99 0.33 1.98 0.66 3 1 C3 2.32 3 3.64 3 5 C1.35 5.66 -0.3 6.32 -2 7 C-2 6.01 -2 5.02 -2 4 C-2.99 3.67 -3.98 3.34 -5 3 C-2.6875 1.4375 -2.6875 1.4375 0 0 Z " fill="#393A3C" transform="translate(397,465)"/>
<path d="M0 0 C0.33 0 0.66 0 1 0 C2.0686132 3.20583961 2.31727934 5.27191495 0.953125 8.40234375 C-0.30744284 10.64374668 -1.61050205 12.83642188 -3 15 C-3.66 15 -4.32 15 -5 15 C-4.625 12.0625 -4.625 12.0625 -4 9 C-3.34 8.67 -2.68 8.34 -2 8 C-1.31527335 6.11235097 -1.31527335 6.11235097 -0.875 3.9375 C-0.62363281 2.83728516 -0.62363281 2.83728516 -0.3671875 1.71484375 C-0.24601562 1.14894531 -0.12484375 0.58304687 0 0 Z " fill="#3A3D41" transform="translate(494,408)"/>
<path d="M0 0 C0.9681648 3.8726592 1.07622858 7.03611362 1 11 C-0.98 11.33 -2.96 11.66 -5 12 C-3.35 8.04 -1.7 4.08 0 0 Z " fill="#464748" transform="translate(494,386)"/>
<path d="M0 0 C3.71599191 -0.20086443 4.77208445 -0.1519437 8 2 C7.67 3.32 7.34 4.64 7 6 C7.66 6 8.32 6 9 6 C8.67 6.66 8.34 7.32 8 8 C6.66372225 6.85760183 5.33104612 5.71098945 4 4.5625 C3.2575 3.92441406 2.515 3.28632813 1.75 2.62890625 C1.1725 2.09136719 0.595 1.55382812 0 1 C0 0.67 0 0.34 0 0 Z " fill="#4C4E51" transform="translate(251,314)"/>
<path d="M0 0 C2.51083114 1.25541557 2.87125446 2.50063488 4 5 C4.99 5 5.98 5 7 5 C6.34 6.32 5.68 7.64 5 9 C5 8.34 5 7.68 5 7 C4.34 7 3.68 7 3 7 C2.67 7.66 2.34 8.32 2 9 C1.01 9 0.02 9 -1 9 C-1.33 8.01 -1.66 7.02 -2 6 C-1.34 6 -0.68 6 0 6 C0 4.02 0 2.04 0 0 Z " fill="#2B2D30" transform="translate(100,235)"/>
<path d="M0 0 C0.66 0.33 1.32 0.66 2 1 C1.88490339 2.41750563 1.75746342 3.83401169 1.625 5.25 C1.55539062 6.03890625 1.48578125 6.8278125 1.4140625 7.640625 C0.98492887 10.085877 0.21399362 11.84836903 -1 14 C-1.125 8.25 -1.125 8.25 0 6 C-0.66 6 -1.32 6 -2 6 C-2 4.35 -2 2.7 -2 1 C-1.34 0.67 -0.68 0.34 0 0 Z " fill="#4C4D4F" transform="translate(517,352)"/>
<path d="M0 0 C0.66 0.33 1.32 0.66 2 1 C1.01 3.31 0.02 5.62 -1 8 C-1.99 8 -2.98 8 -4 8 C-4 8.66 -4 9.32 -4 10 C-4.66 10 -5.32 10 -6 10 C-4.6302836 6.00499382 -2.74277578 3.19990508 0 0 Z " fill="#404246" transform="translate(245,212)"/>
<path d="M0 0 C0.99 0.33 1.98 0.66 3 1 C3.33 3.31 3.66 5.62 4 8 C3.34 8 2.68 8 2 8 C2 7.34 2 6.68 2 6 C0.35 6 -1.3 6 -3 6 C-2.42655063 3.13275314 -2.1385485 2.1385485 0 0 Z " fill="#2F3032" transform="translate(466,160)"/>
<path d="M0 0 C0.53625 0.391875 1.0725 0.78375 1.625 1.1875 C0.635 2.5075 -0.355 3.8275 -1.375 5.1875 C-1.375 4.5275 -1.375 3.8675 -1.375 3.1875 C-2.035 3.1875 -2.695 3.1875 -3.375 3.1875 C-3.705 3.8475 -4.035 4.5075 -4.375 5.1875 C-5.695 4.1975 -7.015 3.2075 -8.375 2.1875 C-2.95961538 -1.0125 -2.95961538 -1.0125 0 0 Z " fill="#434446" transform="translate(253.375,360.8125)"/>
<path d="M0 0 C2 2 2 2 2 6 C2.66 6 3.32 6 4 6 C3.34 7.32 2.68 8.64 2 10 C1.01 10 0.02 10 -1 10 C-2.46726798 6.18510326 -1.43336419 3.70988378 0 0 Z " fill="#2E3032" transform="translate(513,352)"/>
<path d="M0 0 C0.66 0.33 1.32 0.66 2 1 C0.90931332 4.77545388 0.0916909 7.47043472 -3 10 C-4 9 -4 9 -4.0625 6.4375 C-4.041875 5.633125 -4.02125 4.82875 -4 4 C-3.34 4 -2.68 4 -2 4 C-1.34 2.68 -0.68 1.36 0 0 Z " fill="#3A3D41" transform="translate(375,289)"/>
<path d="M0 0 C0.33 0.99 0.66 1.98 1 3 C0.67 3.66 0.34 4.32 0 5 C0.99 5.33 1.98 5.66 3 6 C0.8614515 8.1385485 -0.13275314 8.42655063 -3 9 C-3.75 7.3125 -3.75 7.3125 -4 5 C-2.0625 2.25 -2.0625 2.25 0 0 Z " fill="#3D3F43" transform="translate(137,167)"/>
<path d="M0 0 C1.65 0 3.3 0 5 0 C5 0.99 5 1.98 5 3 C5.99 3.66 6.98 4.32 8 5 C6.741875 5.04125 5.48375 5.0825 4.1875 5.125 C3.47980469 5.14820313 2.77210938 5.17140625 2.04296875 5.1953125 C0 5 0 5 -3 3 C-2.34 3 -1.68 3 -1 3 C-0.67 2.01 -0.34 1.02 0 0 Z " fill="#2B2D31" transform="translate(254,513)"/>
<path d="M0 0 C0.66 0.33 1.32 0.66 2 1 C1.1875 2.9375 1.1875 2.9375 0 5 C-0.99 5.33 -1.98 5.66 -3 6 C-3.99 7.485 -3.99 7.485 -5 9 C-5.99 8.67 -6.98 8.34 -8 8 C-5.33333333 5.33333333 -2.66666667 2.66666667 0 0 Z " fill="#E6E6E7" transform="translate(430,447)"/>
<path d="M0 0 C2.08954032 4.17908064 2.16552619 4.80410573 1 9 C-0.32 9.33 -1.64 9.66 -3 10 C-2.01 6.7 -1.02 3.4 0 0 Z " fill="#494B50" transform="translate(234,230)"/>
<path d="M0 0 C0.99 0.66 1.98 1.32 3 2 C3 2.66 3 3.32 3 4 C2.443125 4.2475 1.88625 4.495 1.3125 4.75 C-1.39971127 6.21606015 -3.63587365 8.02989471 -6 10 C-4.34832443 6.4213696 -2.21713508 3.25179812 0 0 Z " fill="#E7E8E9" transform="translate(141,184)"/>
<path d="M0 0 C3.3 0.99 6.6 1.98 10 3 C6.99382731 6.00617269 4.17618402 5.59585316 0 6 C0.66 5.01 1.32 4.02 2 3 C1.34 2.67 0.68 2.34 0 2 C0 1.34 0 0.68 0 0 Z " fill="#484B4D" transform="translate(232,497)"/>
<path d="M0 0 C0.33 0.66 0.66 1.32 1 2 C1.66 2 2.32 2 3 2 C3 3.32 3 4.64 3 6 C-2.75 4.25 -2.75 4.25 -5 2 C-3.35 1.34 -1.7 0.68 0 0 Z " fill="#464749" transform="translate(211,498)"/>
<path d="M0 0 C2.61500768 2.36595933 4.38999603 4.86049226 6 8 C5.67 8.66 5.34 9.32 5 10 C3.02 8.68 1.04 7.36 -1 6 C-0.67 4.02 -0.34 2.04 0 0 Z " fill="#444649" transform="translate(418,408)"/>
<path d="M0 0 C0 0.99 0 1.98 0 3 C0.66 3.33 1.32 3.66 2 4 C0.56163249 3.88541307 -0.87570966 3.75790884 -2.3125 3.625 C-3.11300781 3.55539062 -3.91351563 3.48578125 -4.73828125 3.4140625 C-7 3 -7 3 -10 1 C-3.375 0 -3.375 0 0 0 Z " fill="#4B4C4E" transform="translate(288,331)"/>
<path d="M0 0 C2.72426311 2.35277269 3.8141763 4.62496331 5 8 C3.68 8.33 2.36 8.66 1 9 C1 7.68 1 6.36 1 5 C0.34 5 -0.32 5 -1 5 C-0.67 3.35 -0.34 1.7 0 0 Z " fill="#434445" transform="translate(488,186)"/>
<path d="M0 0 C1.36125 0.37125 1.36125 0.37125 2.75 0.75 C-0.10306797 3.07472205 -2.79074837 4.5008258 -6.25 5.75 C-6.58 5.09 -6.91 4.43 -7.25 3.75 C-4.05 -0.31153846 -4.05 -0.31153846 0 0 Z " fill="#3F4144" transform="translate(414.25,493.25)"/>
<path d="M0 0 C2.625 0.9375 2.625 0.9375 5 2 C4.67 3.32 4.34 4.64 4 6 C3.67 5.34 3.34 4.68 3 4 C2.67 4.66 2.34 5.32 2 6 C1.01 5.67 0.02 5.34 -1 5 C-1.6875 2.9375 -1.6875 2.9375 -2 1 C-1.34 0.67 -0.68 0.34 0 0 Z " fill="#2B2E32" transform="translate(121,416)"/>
<path d="M0 0 C0.99 0.33 1.98 0.66 3 1 C4.1577506 4.47325181 4.06866652 7.36067448 4 11 C3.01 10.67 2.02 10.34 1 10 C0.67 6.7 0.34 3.4 0 0 Z " fill="#2C2E32" transform="translate(514,250)"/>
<path d="M0 0 C3.63 0 7.26 0 11 0 C11.33 0.99 11.66 1.98 12 3 C8.52128379 4.15957207 7.65780355 3.77456651 4.3125 2.5625 C3.50425781 2.27503906 2.69601563 1.98757813 1.86328125 1.69140625 C1.24839844 1.46324219 0.63351563 1.23507812 0 1 C0 0.67 0 0.34 0 0 Z " fill="#5A5B5D" transform="translate(245,484)"/>
<path d="M0 0 C1.5 1.375 1.5 1.375 3 3 C3 3.66 3 4.32 3 5 C1.125 6.0625 1.125 6.0625 -1 7 C-1.66 6.67 -2.32 6.34 -3 6 C-1.125 1.125 -1.125 1.125 0 0 Z " fill="#3F4145" transform="translate(196,404)"/>
<path d="M0 0 C1.32 1.65 2.64 3.3 4 5 C3.67 5.66 3.34 6.32 3 7 C0.9375 7.625 0.9375 7.625 -1 8 C-0.67 6.35 -0.34 4.7 0 3 C-0.66 2.67 -1.32 2.34 -2 2 C-1.34 1.34 -0.68 0.68 0 0 Z " fill="#424446" transform="translate(499,205)"/>
<path d="M0 0 C1.65 0 3.3 0 5 0 C5.33 0.66 5.66 1.32 6 2 C5.67 2.66 5.34 3.32 5 4 C2.69 4 0.38 4 -2 4 C-1.34 2.68 -0.68 1.36 0 0 Z " fill="#2E2F31" transform="translate(394,491)"/>
<path d="M0 0 C4.875 4.75 4.875 4.75 6 7 C5.34 7 4.68 7 4 7 C3.67 7.66 3.34 8.32 3 9 C0.23776722 6.23776722 0.42143709 3.79293383 0 0 Z " fill="#404143" transform="translate(144,432)"/>
<path d="M0 0 C2.31 1.98 4.62 3.96 7 6 C4 7 4 7 1.8125 6.0625 C1.214375 5.711875 0.61625 5.36125 0 5 C0 3.35 0 1.7 0 0 Z " fill="#454648" transform="translate(400,387)"/>
<path d="M0 0 C1.98 0.495 1.98 0.495 4 1 C2.92598892 3.91517292 2.22189824 5.77810176 0 8 C-1.125 2.25 -1.125 2.25 0 0 Z " fill="#2A2E32" transform="translate(105,362)"/>
<path d="M0 0 C-3.2764462 1.89025742 -6.2283689 2.68569741 -10 3 C-12.375 2.0625 -12.375 2.0625 -14 1 C-8.83430559 -0.79217969 -5.48946087 -1.12029814 0 0 Z " fill="#3C4043" transform="translate(273,356)"/>
<path d="M0 0 C1.32 0.99 2.64 1.98 4 3 C3.67 3.66 3.34 4.32 3 5 C-0.0625 5.625 -0.0625 5.625 -3 6 C-2.01 4.02 -1.02 2.04 0 0 Z " fill="#3D3E40" transform="translate(123,186)"/>
<path d="M0 0 C0.66 0 1.32 0 2 0 C2.33 1.32 2.66 2.64 3 4 C2.34 4 1.68 4 1 4 C0.34 5.32 -0.32 6.64 -1 8 C-1.66 6.68 -2.32 5.36 -3 4 C-1.68 3.67 -0.36 3.34 1 3 C0.67 2.01 0.34 1.02 0 0 Z " fill="#2B2F31" transform="translate(135,175)"/>
<path d="M0 0 C3.465 1.485 3.465 1.485 7 3 C7 3.66 7 4.32 7 5 C4.36 5 1.72 5 -1 5 C-0.34 4.34 0.32 3.68 1 3 C0.67 2.01 0.34 1.02 0 0 Z " fill="#3E4144" transform="translate(216,490)"/>
<path d="M0 0 C1 3 1 3 0 6 C-1.9375 5.625 -1.9375 5.625 -4 5 C-4.33 4.34 -4.66 3.68 -5 3 C-3.35 2.01 -1.7 1.02 0 0 Z " fill="#414243" transform="translate(415,479)"/>
<path d="M0 0 C1.2065625 0.0309375 1.2065625 0.0309375 2.4375 0.0625 C2.7675 1.0525 3.0975 2.0425 3.4375 3.0625 C1.4575 4.0525 1.4575 4.0525 -0.5625 5.0625 C-1.5525 3.7425 -2.5425 2.4225 -3.5625 1.0625 C-2.5625 0.0625 -2.5625 0.0625 0 0 Z " fill="#F4F5F7" transform="translate(164.5625,448.9375)"/>
<path d="M0 0 C0.66 0.33 1.32 0.66 2 1 C1.34 2.98 0.68 4.96 0 7 C-0.33 6.01 -0.66 5.02 -1 4 C-1.66 4.99 -2.32 5.98 -3 7 C-3.1875 4.625 -3.1875 4.625 -3 2 C-2.01 1.34 -1.02 0.68 0 0 Z " fill="#2C2D2F" transform="translate(115,385)"/>
<path d="M0 0 C1 3 1 3 0 6 C-0.66 6 -1.32 6 -2 6 C-3.98 6.99 -3.98 6.99 -6 8 C-4.02 5.36 -2.04 2.72 0 0 Z " fill="#58585A" transform="translate(467,432)"/>
<path d="M0 0 C0.99 0.33 1.98 0.66 3 1 C2.01 2.98 1.02 4.96 0 7 C-0.66 6.67 -1.32 6.34 -2 6 C-1.34 4.02 -0.68 2.04 0 0 Z " fill="#3D3E40" transform="translate(485,425)"/>
<path d="M0 0 C2.7839183 1.39195915 2.97898997 3.15575779 4 6 C3.34 6 2.68 6 2 6 C1.67 6.66 1.34 7.32 1 8 C0.34 5.69 -0.32 3.38 -1 1 C-0.67 0.67 -0.34 0.34 0 0 Z " fill="#393C3E" transform="translate(235,286)"/>
<path d="M0 0 C1.65 1.65 3.3 3.3 5 5 C4.01 5.495 4.01 5.495 3 6 C3 5.34 3 4.68 3 4 C2.01 4 1.02 4 0 4 C-0.33 4.66 -0.66 5.32 -1 6 C-1 2 -1 2 0 0 Z " fill="#424345" transform="translate(363,208)"/>
<path d="M0 0 C0.33 0.99 0.66 1.98 1 3 C-1.31 3.66 -3.62 4.32 -6 5 C-6 4.01 -6 3.02 -6 2 C-4.02 1.34 -2.04 0.68 0 0 Z " fill="#3C3E41" transform="translate(282,186)"/>
<path d="M0 0 C0.66 1.32 1.32 2.64 2 4 C0.02253397 4.73080266 -1.98072489 5.39421747 -4 6 C-4.66 5.67 -5.32 5.34 -6 5 C-4.02 3.35 -2.04 1.7 0 0 Z " fill="#464749" transform="translate(166,138)"/>
<path d="M0 0 C2.64 0.33 5.28 0.66 8 1 C6.68 1.99 5.36 2.98 4 4 C2.68 3.34 1.36 2.68 0 2 C0 1.34 0 0.68 0 0 Z " fill="#414448" transform="translate(364,96)"/>
<path d="M0 0 C3.63 0.66 7.26 1.32 11 2 C11 2.33 11 2.66 11 3 C9.906875 2.979375 8.81375 2.95875 7.6875 2.9375 C4.05615809 2.81455548 4.05615809 2.81455548 1 4 C0.67 2.68 0.34 1.36 0 0 Z " fill="#4F5155" transform="translate(249,503)"/>
<path d="M0 0 C2.56269497 1.04109483 4.02610343 2.02610343 6 4 C5.01 4.33 4.02 4.66 3 5 C0.3125 3.0625 0.3125 3.0625 -2 1 C-1.34 0.67 -0.68 0.34 0 0 Z " fill="#47484A" transform="translate(194,491)"/>
<path d="M0 0 C0.66 0.33 1.32 0.66 2 1 C2 1.99 2 2.98 2 4 C-0.31 4.33 -2.62 4.66 -5 5 C-3.35 3.35 -1.7 1.7 0 0 Z " fill="#48494C" transform="translate(429,469)"/>
<path d="M0 0 C5.75 -0.125 5.75 -0.125 8 1 C7.67 1.99 7.34 2.98 7 4 C4.08482708 2.92598892 2.22189824 2.22189824 0 0 Z " fill="#404143" transform="translate(207,466)"/>
<path d="M0 0 C1.60080151 4.00200378 0.29279692 7.04556236 -1 11 C-1.99 9.68 -2.98 8.36 -4 7 C-3.34 7 -2.68 7 -2 7 C-1.855625 6.401875 -1.71125 5.80375 -1.5625 5.1875 C-1.1127561 3.43849596 -0.57107659 1.71322977 0 0 Z " fill="#292C31" transform="translate(493,408)"/>
<path d="M0 0 C2.64 0.33 5.28 0.66 8 1 C8 1.33 8 1.66 8 2 C7.195625 2.12375 6.39125 2.2475 5.5625 2.375 C4.2940625 2.684375 4.2940625 2.684375 3 3 C2.67 3.66 2.34 4.32 2 5 C1.34 4.67 0.68 4.34 0 4 C0 2.68 0 1.36 0 0 Z " fill="#454648" transform="translate(336,353)"/>
<path d="M0 0 C-1.485 1.485 -1.485 1.485 -3 3 C-6 2 -6 2 -9 0 C-3.375 -1.125 -3.375 -1.125 0 0 Z " fill="#2C2E30" transform="translate(329,331)"/>
<path d="M0 0 C2.5654594 2.5654594 2.54046087 4.47686668 3 8 C2.01 8 1.02 8 0 8 C-1.125 2.25 -1.125 2.25 0 0 Z " fill="#505457" transform="translate(378,232)"/>
<path d="M0 0 C0.99 0.66 1.98 1.32 3 2 C1.35 3.32 -0.3 4.64 -2 6 C-2.33 4.68 -2.66 3.36 -3 2 C-2.01 1.34 -1.02 0.68 0 0 Z " fill="#EFF0F1" transform="translate(252,200)"/>
<path d="M0 0 C2.97 0.495 2.97 0.495 6 1 C3.08235 2.9451 1.37462715 3.45276317 -2 4 C-2 3.34 -2 2.68 -2 2 C-1.34 2 -0.68 2 0 2 C0 1.34 0 0.68 0 0 Z " fill="#484A4F" transform="translate(354,485)"/>
<path d="M0 0 C2.46800047 1.15173355 4.04783565 2.04783565 6 4 C5.34 4.66 4.68 5.32 4 6 C2 4.6875 2 4.6875 0 3 C0 2.01 0 1.02 0 0 Z " fill="#47494C" transform="translate(197,457)"/>
<path d="M0 0 C1.65 0 3.3 0 5 0 C5 0.66 5 1.32 5 2 C5.66 2.33 6.32 2.66 7 3 C5.02 3.66 3.04 4.32 1 5 C1.33 4.01 1.66 3.02 2 2 C1.34 2 0.68 2 0 2 C0 1.34 0 0.68 0 0 Z " fill="#2A2D32" transform="translate(417,121)"/>
<path d="M0 0 C1.32 0.66 2.64 1.32 4 2 C3.67 2.99 3.34 3.98 3 5 C2.01 5.33 1.02 5.66 0 6 C-1 3 -1 3 0 0 Z " fill="#EFF1F2" transform="translate(193,113)"/>
</svg>
